<svg id="Layer_1" enable-background="new 0 0 508.258 508.258" height="512" viewBox="0 0 508.258 508.258" width="512" xmlns="http://www.w3.org/2000/svg"><g><path d="m267.167 35.44-243.442 222.791 20.254 22.131 243.442-222.792c42.47-38.869 107.775-36.123 146.945 5.077l18.489-4.347 2.733-16.875c-50.621-52.676-134.204-55.602-188.421-5.985z" fill="#76e2f8"/><path d="m66.949 361.007 260.04-237.981c12.533-11.47 32.526-10.448 43.644 3.355l19.611-5.469 1.661-15.803c-22.353-24.927-60.573-26.725-85.17-4.213l-260.04 237.98c-36.645 33.534-41.303 87.681-15.02 126.462l15.97-1.828 5.83-19.972c-14.617-26.253-10.396-60.688 13.474-82.531z" fill="#76e2f8"/><g fill="#4bb9ec"><path d="m455.589 41.425-21.223 21.223c40.777 42.938 38.006 110.328-5.17 149.841l-271.106 248.108c-32.218 29.486-83.392 21.045-104.614-17.06l-21.8 21.8c33.592 49.577 103.036 57.32 146.668 17.391l271.106-248.108c55.688-50.963 58.859-138.326 6.139-193.195z"/><path d="m367.497 167.288-232.377 212.664 20.254 22.131 232.377-212.663c24.278-22.218 26.156-59.786 4.154-84.311l-21.272 21.272c9.782 12.152 8.692 30.083-3.136 40.907z"/></g></g></svg>